<?xml version="1.0" ?><svg enable-background="new 0 0 504 504" id="Layer_1" version="1.1" viewBox="0 0 504 504" xml:space="preserve" xmlns="http://www.w3.org/2000/svg" xmlns:xlink="http://www.w3.org/1999/xlink"><path d="M454.5,258.9c-9.2,58.5-27.1,75.6-58.8,114.9c-31.7,33.3-77.3,88.9-141.9,85.8  c-58.5-9.2-75.6-27.1-114.9-58.8c-33.3-31.7-88.9-77.3-85.8-141.9c9.2-58.5,27.1-75.6,58.8-114.9c31.7-33.3,77.3-88.9,141.9-85.8  c58.5,9.2,75.6,27.1,114.9,58.8C402,148.8,457.5,194.3,454.5,258.9z" fill="#3765AF"/><g><path d="M332.6,176.4c6.8,9.4,10.1,20.7,10.1,33.8c0,13.5-3.4,24.4-10.2,32.6c-3.8,4.6-9.4,8.8-16.9,12.6   c11.3,4.1,19.8,10.6,25.6,19.5c5.7,8.9,8.6,19.7,8.6,32.4c0,13.1-3.3,24.9-9.8,35.3c-4.2,6.9-9.4,12.7-15.7,17.4   c-7.1,5.4-15.4,9.1-25,11.1c-9.6,2-20,3-31.3,3h-99.7V152.9h106.9C302.2,153.3,321.3,161.1,332.6,176.4z M212.4,191.3v48.8h53.8   c9.6,0,17.4-1.8,23.4-5.5c6-3.7,9-10.1,9-19.4c0-10.3-4-17.1-11.9-20.4c-6.8-2.3-15.6-3.5-26.1-3.5H212.4z M212.4,276.7v59h53.7   c9.6,0,17.1-1.3,22.4-3.9c9.7-4.8,14.5-14,14.5-27.6c0-11.5-4.7-19.4-14.1-23.7c-5.2-2.4-12.6-3.7-22.1-3.8H212.4z" fill="#FFFFFF"/></g></svg>